<svg width="30" height="30" viewBox="0 0 30 30" fill="none" xmlns="http://www.w3.org/2000/svg">
<path d="M16.5 15H13.5C9.91958 15 6.4858 16.4223 3.95406 18.9541C1.42232 21.4858 0 24.9196 0 28.5C0 28.8978 0.158035 29.2794 0.43934 29.5607C0.720644 29.842 1.10218 30 1.5 30H28.5C28.8978 30 29.2794 29.842 29.5607 29.5607C29.842 29.2794 30 28.8978 30 28.5C30 24.9196 28.5777 21.4858 26.0459 18.9541C23.5142 16.4223 20.0804 15 16.5 15ZM3.105 27C3.46576 24.5006 4.71526 22.2149 6.62446 20.5619C8.53366 18.9089 10.9746 17.9994 13.5 18H16.5C19.0254 17.9994 21.4663 18.9089 23.3755 20.5619C25.2847 22.2149 26.5342 24.5006 26.895 27H3.105ZM22.5 7.5C22.5 6.01664 22.0601 4.5666 21.236 3.33323C20.4119 2.09986 19.2406 1.13856 17.8701 0.570907C16.4997 0.00324963 14.9917 -0.145275 13.5368 0.144114C12.082 0.433503 10.7456 1.14781 9.6967 2.1967C8.64781 3.2456 7.9335 4.58197 7.64411 6.03683C7.35472 7.49168 7.50325 8.99968 8.0709 10.3701C8.63856 11.7406 9.59985 12.9119 10.8332 13.736C12.0666 14.5601 13.5166 15 15 15C15.9849 15 16.9602 14.806 17.8701 14.4291C18.7801 14.0522 19.6069 13.4997 20.3033 12.8033C20.9997 12.1069 21.5522 11.2801 21.9291 10.3701C22.306 9.46019 22.5 8.48492 22.5 7.5ZM15 12C14.11 12 13.24 11.7361 12.4999 11.2416C11.7599 10.7472 11.1831 10.0443 10.8425 9.22208C10.5019 8.39981 10.4128 7.49501 10.5865 6.6221C10.7601 5.74918 11.1887 4.94736 11.818 4.31802C12.4474 3.68869 13.2492 3.2601 14.1221 3.08647C14.995 2.91284 15.8998 3.00195 16.7221 3.34255C17.5443 3.68314 18.2471 4.25992 18.7416 4.99994C19.2361 5.73996 19.5 6.60999 19.5 7.5C19.5 8.69348 19.0259 9.83807 18.182 10.682C17.3381 11.5259 16.1935 12 15 12Z" fill="black"/>
</svg>
