<svg width="30" height="30" viewBox="0 0 30 30" fill="none" xmlns="http://www.w3.org/2000/svg">
<path d="M1.5 25.5H10.7028C10.7001 25.5629 10.6878 25.6245 10.6878 25.6875C10.6878 26.8312 11.1422 27.9281 11.9509 28.7369C12.7597 29.5456 13.8566 30 15.0003 30C16.144 30 17.2409 29.5456 18.0497 28.7369C18.8584 27.9281 19.3128 26.8312 19.3128 25.6875C19.3128 25.6245 19.3002 25.5629 19.2978 25.5H28.5C28.8978 25.5 29.2794 25.342 29.5607 25.0607C29.842 24.7794 30 24.3978 30 24C30 23.6022 29.842 23.2206 29.5607 22.9393C29.2794 22.658 28.8978 22.5 28.5 22.5H27V12C27 8.8174 25.7357 5.76516 23.4853 3.51472C21.2348 1.26428 18.1826 0 15 0C11.8174 0 8.76516 1.26428 6.51472 3.51472C4.26428 5.76516 3 8.8174 3 12V22.5H1.5C1.10218 22.5 0.720644 22.658 0.43934 22.9393C0.158035 23.2206 0 23.6022 0 24C0 24.3978 0.158035 24.7794 0.43934 25.0607C0.720644 25.342 1.10218 25.5 1.5 25.5ZM16.3125 25.6875C16.3125 26.0356 16.1742 26.3694 15.9281 26.6156C15.6819 26.8617 15.3481 27 15 27C14.6519 27 14.3181 26.8617 14.0719 26.6156C13.8258 26.3694 13.6875 26.0356 13.6875 25.6875C13.6931 25.6243 13.7034 25.5617 13.7183 25.5H16.2817C16.2966 25.5617 16.3069 25.6243 16.3125 25.6875ZM6 12C6 9.61305 6.94821 7.32387 8.63604 5.63604C10.3239 3.94821 12.6131 3 15 3C17.3869 3 19.6761 3.94821 21.364 5.63604C23.0518 7.32387 24 9.61305 24 12V22.5H6V12Z" fill="white"/>
</svg>
