<svg width="30" height="30" viewBox="0 0 30 30" fill="none" xmlns="http://www.w3.org/2000/svg">
<path d="M15 4.95123e-05C6.71025 4.95123e-05 0 6.71029 0 15C0 23.2898 6.71025 30 15 30C23.2898 30 30 23.2898 30 15C30 14.1311 29.2895 13.4205 28.4205 13.4205H28.1052C27.3946 7.42083 22.5792 2.60388 16.578 1.89333L16.5795 1.57803C16.5795 0.710549 15.869 4.95123e-05 15 4.95123e-05ZM15 26.8425C8.5266 26.8425 3.1575 21.5534 3.1575 15C3.1575 9.00034 7.65765 4.10494 13.4205 3.31594V15C13.4205 15.869 14.131 16.5795 15 16.5795H26.6841C25.8951 22.3424 20.9997 26.8425 15 26.8425ZM24.9477 13.4205H16.5795V5.05234C20.8428 5.76289 24.2372 9.15723 24.9477 13.4205Z" fill="white"/>
</svg>
