<svg width="30" height="30" viewBox="0 0 30 30" fill="none" xmlns="http://www.w3.org/2000/svg">
<path d="M4.49502 0C2.02702 0 0 2.04069 0 4.50747V9.00029C0 11.4671 2.02702 13.5048 4.49502 13.5048H8.99004C11.458 13.5048 13.4997 11.4671 13.4997 9.00029V4.50747C13.4997 2.04069 11.458 0 8.99004 0H4.49502ZM20.9953 0C18.5273 0 16.5003 2.04069 16.5003 4.50747V9.00029C16.5003 11.4671 18.5273 13.5048 20.9953 13.5048H25.505C27.973 13.5048 30 11.4671 30 9.00029V4.50747C30 2.04069 27.973 0 25.505 0H20.9953ZM4.49502 3.00205H8.99004C9.8364 3.00205 10.4991 3.66158 10.4991 4.50747V9.00029C10.4991 9.84624 9.8364 10.5057 8.99004 10.5057H4.49502C3.64866 10.5057 3.00059 9.84624 3.00059 9.00029V4.50747C3.00059 3.66158 3.64866 3.00205 4.49502 3.00205ZM20.9953 3.00205H25.505C26.3513 3.00205 26.9994 3.66158 26.9994 4.50747V9.00029C26.9994 9.84624 26.3513 10.5057 25.505 10.5057H20.9953C20.149 10.5057 19.5009 9.84624 19.5009 9.00029V4.50747C19.5009 3.66158 20.149 3.00205 20.9953 3.00205ZM4.49502 16.5069C2.02702 16.5069 0 18.5329 0 20.9997V25.4955C0 27.9622 2.02702 30 4.49502 30H8.99004C11.458 30 13.4997 27.9622 13.4997 25.4955V20.9997C13.4997 18.5329 11.458 16.5069 8.99004 16.5069H4.49502ZM20.9953 16.5069C18.5273 16.5069 16.5003 18.5329 16.5003 20.9997V25.4955C16.5003 27.9622 18.5273 30 20.9953 30H25.505C27.973 30 30 27.9622 30 25.4955V20.9997C30 18.5329 27.973 16.5069 25.505 16.5069H20.9953ZM4.49502 19.506H8.99004C9.8364 19.506 10.4991 20.1538 10.4991 20.9997V25.4955C10.4991 26.3414 9.8364 27.0009 8.99004 27.0009H4.49502C3.64866 27.0009 3.00059 26.3414 3.00059 25.4955V20.9997C3.00059 20.1538 3.64866 19.506 4.49502 19.506ZM20.9953 19.506H25.505C26.3513 19.506 26.9994 20.1538 26.9994 20.9997V25.4955C26.9994 26.3414 26.3513 27.0009 25.505 27.0009H20.9953C20.149 27.0009 19.5009 26.3414 19.5009 25.4955V20.9997C19.5009 20.1538 20.149 19.506 20.9953 19.506Z" fill="black"/>
</svg>
